# xmcd
#
# Track frame offsets: 
#        150
#        18169
#        41428
#        74587
#        91921
#        103480
#        132589
#        149248
#        168532
#        180166
#        214225
#        236359
#        252118
#        267952
#        291061
#
# Disc length: 4011 seconds
#
# Revision: 0
# Processed by: cddbd v1.5.2PL0 Copyright (c) Steve Scherf et al.
# Submitted via: ExactAudioCopyFreeDBPlugin 1.0
#
DISCID=e10fa90f
DTITLE=Gregor Hilden - Westcoast Blues
DYEAR=1998
DGENRE=Blues
TTITLE0=Down Home Blues
TTITLE1=The Ghetto
TTITLE2=Heart of the City
TTITLE3=Ocean Breeze Motel
TTITLE4=Ooh Wee Baby
TTITLE5=Sleepwalk
TTITLE6=New York Blues
TTITLE7=Mercy, Mercy, Mercy
TTITLE8=Sunnymoon
TTITLE9=Since I Fell for You
TTITLE10=Proud Pinto
TTITLE11=Westcoast Blues
TTITLE12=Little Funky Thang
TTITLE13=Beale Street Strut
TTITLE14=Apostle
EXTD=
EXTT0=
EXTT1=
EXTT2=
EXTT3=
EXTT4=
EXTT5=
EXTT6=
EXTT7=
EXTT8=
EXTT9=
EXTT10=
EXTT11=
EXTT12=
EXTT13=
EXTT14=
PLAYORDER=
